# Blender v2.81 (sub 16) OBJ File: ''
# www.blender.org
o radius_l_visual_Radius_L
v -0.018792 0.015465 -0.229397
v -0.013906 0.014953 -0.229378
v -0.012807 0.011017 -0.227620
v -0.003959 0.009251 -0.228413
v -0.007831 0.008202 -0.227726
v -0.006925 0.007649 -0.224190
v -0.010300 0.008970 -0.222893
v -0.016840 0.020368 -0.233137
v -0.003570 0.027583 -0.232487
v -0.019980 0.016064 -0.229816
v -0.020873 0.016046 -0.226810
v -0.003494 0.009132 -0.225922
v -0.001507 0.011938 -0.229580
v -0.000459 0.012410 -0.227416
v -0.006535 0.013224 -0.220379
v -0.011412 0.012810 -0.218668
v -0.012698 0.013016 -0.218634
v -0.020038 0.017451 -0.229244
v -0.016802 0.023950 -0.231600
v -0.014345 0.023899 -0.233849
v -0.008889 0.027961 -0.234115
v -0.015652 0.023784 -0.232957
v 0.001082 0.031757 -0.236946
v 0.002201 0.027081 -0.233835
v 0.001192 0.024164 -0.232679
v -0.004699 0.032661 -0.237392
v -0.007458 0.031222 -0.235616
v -0.016402 0.017506 -0.215415
v -0.018751 0.019161 -0.224172
v 0.002611 0.025187 -0.232528
v 0.002632 0.019733 -0.228528
v 0.000960 0.023096 -0.224825
v -0.006479 0.016863 -0.214361
v -0.005214 0.015905 -0.219404
v -0.010012 0.015198 -0.214441
v -0.016276 0.026161 -0.231489
v -0.015604 0.025442 -0.232902
v -0.015321 0.026630 -0.232827
v -0.010171 0.029519 -0.234620
v -0.014596 0.026839 -0.233642
v 0.001925 0.033050 -0.236103
v 0.003622 0.031412 -0.231543
v -0.001760 0.033939 -0.238496
v 0.000171 0.034630 -0.237757
v -0.007060 0.032732 -0.234733
v -0.004768 0.033883 -0.236899
v -0.012831 0.031432 -0.230181
v -0.014505 0.018183 -0.209184
v -0.010531 0.016641 -0.208876
v -0.016791 0.025854 -0.226552
v 0.004889 0.027259 -0.229356
v 0.004817 0.030299 -0.230221
v 0.004709 0.029131 -0.225450
v -0.003106 0.021412 -0.209231
v 0.001638 0.032050 -0.216138
v -0.017714 0.028610 -0.225712
v 0.001706 0.035160 -0.235556
v 0.004170 0.033350 -0.230514
v -0.002656 0.035771 -0.236867
v -0.001335 0.036616 -0.235448
v -0.004100 0.035333 -0.232077
v -0.002620 0.036240 -0.230562
v -0.016491 0.030221 -0.225106
v -0.011755 0.017976 -0.194929
v -0.007865 0.017667 -0.187825
v -0.003824 0.019537 -0.184567
v -0.015071 0.024859 -0.208991
v 0.004859 0.032199 -0.227537
v -0.000879 0.025051 -0.187407
v -0.004849 0.032003 -0.208294
v -0.001127 0.029375 -0.194182
v -0.016345 0.029893 -0.222652
v -0.011011 0.030061 -0.196621
v -0.008743 0.016471 -0.146781
v -0.013017 0.024766 -0.187801
v 0.001280 0.021405 -0.141554
v -0.000488 0.026568 -0.170097
v -0.004050 0.030044 -0.183105
v -0.010782 0.027759 -0.180135
v -0.006709 0.029394 -0.169985
v -0.006915 0.009187 -0.108148
v -0.009404 0.025524 -0.150746
v -0.007713 0.018654 -0.101541
v -0.008273 0.027435 -0.154829
v 0.004237 0.009913 -0.074194
v 0.002744 0.020382 -0.112028
v -0.002631 0.027173 -0.136804
v 0.000514 0.023618 -0.111550
v -0.005385 0.028053 -0.145584
v -0.005447 0.004369 -0.077090
v -0.007081 0.004865 -0.077017
v -0.007344 0.026499 -0.136928
v -0.004357 0.009127 -0.039016
v -0.002792 0.016380 -0.075317
v -0.005179 0.002923 -0.061822
v -0.006724 0.002282 -0.046001
v -0.001008 0.023414 -0.106362
v 0.003460 0.006608 -0.066548
v 0.003693 0.014133 -0.075809
v 0.001330 0.018840 -0.084748
v -0.003914 0.026995 -0.131994
v 0.001031 0.016241 -0.075384
v -0.000632 0.008162 -0.032441
v -0.003284 0.005203 -0.023968
v -0.006506 0.004339 -0.030551
v -0.003637 -0.004824 -0.027095
v -0.006663 -0.002639 -0.026528
v -0.007226 0.000762 -0.027171
v 0.003416 0.002369 -0.048575
v -0.000447 -0.001803 -0.043640
v 0.002810 0.011018 -0.061447
v 0.002935 0.003659 -0.018762
v -0.000056 0.004702 -0.018105
v -0.006578 0.002388 -0.018017
v -0.004396 0.004581 -0.013991
v -0.005425 -0.003148 -0.023554
v -0.001207 -0.004948 -0.024063
v 0.000868 -0.003937 -0.035545
v 0.001047 -0.004724 -0.031617
v -0.006546 -0.002195 -0.018377
v -0.007401 0.000166 -0.016017
v 0.003479 0.001388 -0.044503
v 0.002715 0.000345 -0.044268
v 0.002340 -0.002064 -0.040314
v 0.004772 -0.001531 -0.024184
v 0.004433 0.000697 -0.018747
v 0.004551 -0.000245 -0.010046
v 0.003862 0.002737 -0.010011
v 0.002312 0.004922 -0.009756
v 0.000061 0.006088 -0.009267
v -0.002793 0.006204 -0.009485
v -0.007544 0.002727 -0.009581
v -0.004422 -0.004021 -0.019166
v 0.002231 -0.003887 -0.019494
v -0.000838 -0.006633 -0.011546
v 0.002006 -0.004294 -0.015365
v 0.003190 -0.003510 -0.031854
v 0.003630 -0.003397 -0.024232
v -0.006674 -0.003189 -0.013473
v -0.007898 0.001405 -0.009528
v 0.003888 -0.002119 -0.019426
v 0.003811 -0.002163 -0.014798
v 0.003255 -0.003995 -0.010964
v 0.006295 -0.000012 -0.007474
v 0.005935 -0.006119 -0.007421
v 0.005232 0.007624 -0.004721
v 0.007758 0.004224 -0.005096
v 0.000527 0.010148 -0.004327
v 0.003066 0.009379 -0.004451
v -0.008384 0.006957 -0.004303
v -0.003295 0.009921 -0.004456
v -0.010383 0.002311 -0.004497
v -0.003923 -0.005973 -0.011275
v 0.002209 -0.005278 -0.011468
v 0.003492 -0.007208 -0.009098
v -0.000624 -0.008427 -0.009400
v -0.007047 -0.003084 -0.009992
v -0.010446 -0.000589 -0.004622
v 0.003387 -0.008432 -0.005394
v 0.005580 -0.007261 -0.000392
v 0.007822 -0.003516 -0.006408
v 0.008658 -0.000174 -0.005775
v 0.007988 0.004045 -0.002455
v 0.005633 0.007309 -0.001649
v -0.001340 0.010182 -0.001469
v 0.003438 0.007988 0.000696
v -0.003223 0.010182 -0.001531
v -0.006608 0.007873 -0.000038
v -0.009383 0.005472 -0.001136
v -0.009975 0.003982 -0.001139
v -0.010529 -0.001122 -0.001432
v -0.010170 0.001946 0.001355
v -0.003776 -0.007860 -0.008705
v -0.008142 -0.004253 -0.006249
v -0.003608 -0.009032 -0.003195
v -0.001906 -0.009199 -0.004884
v 0.000338 -0.009643 -0.000568
v 0.007954 -0.000758 0.000446
v 0.004665 -0.006121 0.000666
v 0.007756 0.003134 -0.000034
v 0.005622 0.006268 0.000272
v -0.002526 0.009179 0.000936
v 0.002673 0.006609 0.001419
v -0.008684 0.004980 0.001556
v -0.006185 0.007391 0.001340
v -0.008504 -0.004229 0.001057
v -0.008497 0.001495 0.002203
v -0.009200 -0.004161 -0.001812
v -0.003293 -0.009131 -0.000065
v -0.002797 -0.007738 0.001095
v 0.007013 0.003040 0.000477
v 0.001661 -0.001182 -0.000403
v -0.007280 0.004042 0.002313
v -0.007127 -0.003676 0.002063
vn -0.2802 -0.7891 -0.5466
vn 0.0005 -0.4158 -0.9095
vn -0.4189 -0.7438 -0.5208
vn 0.2792 -0.7280 -0.6261
vn -0.1760 -0.7913 -0.5855
vn 0.1283 -0.9316 0.3399
vn -0.2792 -0.8848 0.3731
vn -0.3741 -0.1656 -0.9125
vn -0.0348 -0.4560 -0.8893
vn -0.6550 -0.4853 -0.5791
vn -0.9649 -0.2594 0.0407
vn 0.6166 -0.7451 0.2542
vn 0.4046 -0.5168 -0.7544
vn 0.8581 -0.4822 0.1766
vn 0.5377 -0.5927 0.5996
vn 0.0641 -0.8043 0.5907
vn -0.3965 -0.7766 0.4895
vn -0.9184 0.3038 -0.2533
vn -0.8923 0.2531 -0.3738
vn -0.1689 -0.1252 -0.9777
vn 0.1538 -0.3657 -0.9179
vn -0.6569 0.1533 -0.7382
vn 0.4268 -0.3807 -0.8203
vn 0.4848 -0.3470 -0.8028
vn 0.0590 -0.2968 -0.9531
vn -0.4065 -0.2129 -0.8885
vn -0.4011 -0.0193 -0.9158
vn -0.8342 -0.3993 0.3802
vn -0.9049 0.3776 0.1963
vn 0.6982 -0.3099 -0.6453
vn 0.9303 -0.3647 0.0394
vn 0.7793 -0.3965 0.4853
vn 0.5081 -0.7938 0.3340
vn 0.8199 -0.5087 0.2627
vn 0.0759 -0.9238 0.3753
vn -0.8887 0.2949 -0.3510
vn -0.7486 0.1332 -0.6495
vn -0.7474 0.4379 -0.4996
vn -0.3474 0.1976 -0.9167
vn -0.5501 0.3285 -0.7677
vn 0.8552 0.0508 -0.5158
vn 0.8570 0.0049 -0.5152
vn -0.0475 0.0660 -0.9967
vn 0.4426 0.4133 -0.7957
vn -0.5856 0.6733 -0.4513
vn -0.6314 0.5379 -0.5585
vn -0.5550 0.7614 -0.3348
vn -0.8089 -0.5566 0.1893
vn 0.0563 -0.9864 0.1540
vn -0.9995 -0.0309 -0.0003
vn 0.9673 -0.1805 -0.1781
vn 0.9264 0.0341 -0.3750
vn 0.9492 -0.1447 0.2795
vn 0.7930 -0.6070 0.0519
vn 0.8365 0.4725 0.2775
vn -0.9698 0.2234 -0.0973
vn 0.7079 0.6489 -0.2787
vn 0.7996 0.5812 -0.1511
vn -0.3370 0.7962 -0.5025
vn 0.0460 0.9842 -0.1709
vn -0.4831 0.8649 -0.1359
vn -0.0368 0.9969 0.0689
vn -0.6259 0.7793 -0.0299
vn -0.6801 -0.7275 0.0906
vn 0.2072 -0.9782 -0.0145
vn 0.6733 -0.7383 -0.0377
vn -0.9919 -0.0537 0.1147
vn 0.8973 0.4280 0.1075
vn 0.9722 -0.2331 -0.0213
vn 0.1075 0.9809 0.1620
vn 0.7451 0.6579 0.1095
vn -0.6898 0.7053 0.1633
vn -0.3930 0.9136 0.1043
vn -0.5074 -0.8614 -0.0248
vn -0.9932 0.0548 0.1028
vn 0.9739 -0.2149 -0.0724
vn 0.8741 0.4857 0.0005
vn 0.2371 0.9694 0.0637
vn -0.7742 0.6233 0.1097
vn -0.2313 0.9707 0.0643
vn -0.4264 -0.8922 -0.1486
vn -0.9145 0.3907 0.1045
vn -0.8798 0.4635 0.1053
vn -0.6263 0.7752 0.0817
vn 0.9365 -0.3475 -0.0472
vn 0.9569 0.2901 -0.0107
vn 0.5063 0.8614 0.0395
vn 0.5799 0.8115 0.0724
vn -0.2020 0.9778 0.0551
vn 0.1098 -0.9824 -0.1512
vn -0.8624 -0.5059 0.0156
vn -0.6265 0.7715 0.1104
vn -0.5996 0.7880 0.1396
vn -0.2164 0.9566 0.1951
vn -0.4218 -0.8875 -0.1852
vn -0.9776 -0.2079 -0.0338
vn -0.0471 0.9826 0.1794
vn 0.8399 -0.5363 -0.0835
vn 0.8795 0.4586 0.1268
vn 0.4296 0.8853 0.1777
vn -0.0630 0.9886 0.1362
vn 0.3598 0.9037 0.2318
vn 0.1595 0.9637 0.2138
vn -0.3921 0.9040 0.1703
vn -0.8731 0.4784 0.0941
vn -0.3508 -0.9361 -0.0245
vn -0.8320 -0.5540 -0.0284
vn -0.9998 0.0215 -0.0005
vn 0.8737 -0.4538 -0.1748
vn 0.1441 -0.9425 -0.3014
vn 0.9081 0.4063 0.1012
vn 0.6988 0.7136 0.0497
vn 0.1413 0.9898 0.0135
vn -0.8305 0.5564 -0.0237
vn -0.4513 0.8844 -0.1188
vn -0.4828 -0.8741 0.0523
vn -0.0281 -0.9995 0.0167
vn 0.1333 -0.9661 -0.2211
vn 0.1929 -0.9735 -0.1222
vn -0.8502 -0.5222 -0.0661
vn -0.9974 -0.0161 -0.0696
vn 0.9331 -0.3334 -0.1343
vn 0.6249 -0.7176 -0.3074
vn 0.5952 -0.7570 -0.2696
vn 0.9761 -0.2167 0.0168
vn 0.9880 0.1456 0.0507
vn 0.9317 0.0217 -0.3625
vn 0.8500 0.3822 -0.3625
vn 0.5610 0.7360 -0.3789
vn 0.2002 0.8780 -0.4348
vn -0.2477 0.8737 -0.4186
vn -0.7975 0.4989 -0.3392
vn -0.5304 -0.8419 -0.0991
vn 0.5506 -0.8347 0.0079
vn 0.0638 -0.8847 -0.4618
vn 0.6385 -0.7595 -0.1243
vn 0.7394 -0.6634 -0.1144
vn 0.6724 -0.7396 0.0298
vn -0.8463 -0.5241 -0.0954
vn -0.9485 0.0578 -0.3115
vn 0.8818 -0.4642 0.0829
vn 0.8980 -0.4362 -0.0568
vn 0.8337 -0.3486 -0.4283
vn 0.7161 0.0723 -0.6942
vn 0.7499 -0.5176 -0.4119
vn 0.6576 0.6770 -0.3306
vn 0.8384 0.4048 -0.3648
vn 0.1578 0.9520 -0.2622
vn 0.4063 0.8799 -0.2463
vn -0.7012 0.6637 -0.2602
vn -0.2642 0.9041 -0.3359
vn -0.9517 0.2018 -0.2314
vn -0.4977 -0.7994 -0.3364
vn 0.5811 -0.6552 -0.4827
vn 0.4798 -0.7060 -0.5209
vn 0.0208 -0.9004 -0.4345
vn -0.8601 -0.4268 -0.2792
vn -0.9521 -0.1930 -0.2369
vn 0.3981 -0.9064 -0.1409
vn 0.6324 -0.6526 0.4172
vn 0.8605 -0.2736 -0.4298
vn 0.9201 0.0210 -0.3910
vn 0.9262 0.3656 0.0918
vn 0.6942 0.6999 0.1681
vn 0.1086 0.9708 0.2137
vn 0.3800 0.6708 0.6369
vn -0.2542 0.9551 0.1521
vn -0.5532 0.7876 0.2713
vn -0.8451 0.5200 0.1239
vn -0.9452 0.3155 0.0837
vn -0.9697 -0.2212 0.1035
vn -0.8248 0.0752 0.5604
vn -0.4733 -0.8122 -0.3410
vn -0.7857 -0.5604 -0.2620
vn -0.4287 -0.9010 -0.0665
vn -0.1211 -0.9780 -0.1700
vn 0.1463 -0.9057 0.3977
vn 0.6684 -0.0971 0.7374
vn 0.2224 -0.2137 0.9512
vn 0.8296 0.2498 0.4993
vn 0.6194 0.4618 0.6349
vn -0.0552 0.6819 0.7294
vn 0.1755 0.1185 0.9773
vn -0.6209 0.4329 0.6534
vn -0.3265 0.5968 0.7329
vn -0.6787 -0.4971 0.5405
vn -0.1961 -0.0421 0.9797
vn -0.8232 -0.5676 -0.0070
vn -0.3216 -0.8509 0.4152
vn -0.0243 -0.3506 0.9362
vn 0.3065 0.0726 0.9491
vn 0.0552 -0.0136 0.9984
vn -0.0929 0.0903 0.9915
vn -0.1582 -0.2127 0.9642
s 1
f 1//1 2//2 3//3
f 4//4 5//5 3//3
f 3//3 6//6 7//7
f 6//6 3//3 5//5
f 3//3 7//7 1//1
f 4//4 3//3 2//2
f 8//8 2//2 1//1
f 9//9 4//4 2//2
f 2//2 8//8 9//9
f 10//10 1//1 11//11
f 1//1 10//10 8//8
f 7//7 11//11 1//1
f 12//12 5//5 4//4
f 6//6 5//5 12//12
f 13//13 4//4 9//9
f 14//14 4//4 13//13
f 4//4 14//14 12//12
f 15//15 7//7 6//6
f 15//15 16//16 7//7
f 16//16 17//17 7//7
f 11//11 7//7 17//17
f 12//12 15//15 6//6
f 18//18 19//19 8//8
f 10//10 18//18 8//8
f 20//20 21//21 8//8
f 21//21 9//9 8//8
f 22//22 20//20 8//8
f 19//19 22//22 8//8
f 23//23 24//24 9//9
f 9//9 25//25 13//13
f 24//24 25//25 9//9
f 23//23 9//9 26//26
f 26//26 9//9 27//27
f 9//9 21//21 27//27
f 28//28 11//11 17//17
f 29//29 11//11 28//28
f 18//18 11//11 29//29
f 18//18 10//10 11//11
f 14//14 15//15 12//12
f 30//30 13//13 25//25
f 13//13 31//31 14//14
f 31//31 13//13 30//30
f 15//15 14//14 32//32
f 14//14 31//31 32//32
f 15//15 33//33 16//16
f 34//34 33//33 15//15
f 34//34 15//15 32//32
f 35//35 17//17 16//16
f 33//33 35//35 16//16
f 28//28 17//17 35//35
f 19//19 29//29 36//36
f 37//37 22//22 19//19
f 38//38 19//19 36//36
f 38//38 37//37 19//19
f 29//29 19//19 18//18
f 27//27 21//21 39//39
f 20//20 39//39 21//21
f 40//40 20//20 22//22
f 39//39 20//20 40//40
f 37//37 40//40 22//22
f 41//41 24//24 23//23
f 24//24 30//30 25//25
f 42//42 30//30 24//24
f 42//42 24//24 41//41
f 23//23 26//26 43//43
f 23//23 44//44 41//41
f 43//43 44//44 23//23
f 45//45 26//26 27//27
f 26//26 45//45 46//46
f 46//46 43//43 26//26
f 27//27 39//39 47//47
f 27//27 47//47 45//45
f 48//48 28//28 49//49
f 35//35 49//49 28//28
f 48//48 29//29 28//28
f 29//29 48//48 50//50
f 29//29 50//50 36//36
f 31//31 30//30 51//51
f 52//52 30//30 42//42
f 30//30 52//52 51//51
f 53//53 31//31 51//51
f 32//32 31//31 53//53
f 32//32 53//53 34//34
f 33//33 34//34 54//54
f 49//49 33//33 54//54
f 33//33 49//49 35//35
f 54//54 34//34 55//55
f 53//53 55//55 34//34
f 56//56 36//36 50//50
f 56//56 38//38 36//36
f 40//40 37//37 38//38
f 56//56 40//40 38//38
f 40//40 47//47 39//39
f 56//56 47//47 40//40
f 57//57 42//42 41//41
f 41//41 44//44 57//57
f 58//58 42//42 57//57
f 58//58 52//52 42//42
f 43//43 46//46 59//59
f 43//43 59//59 44//44
f 60//60 44//44 59//59
f 44//44 60//60 57//57
f 61//61 45//45 47//47
f 61//61 46//46 45//45
f 59//59 46//46 61//61
f 62//62 47//47 63//63
f 47//47 62//62 61//61
f 56//56 63//63 47//47
f 48//48 49//49 64//64
f 64//64 49//49 65//65
f 65//65 49//49 66//66
f 49//49 54//54 66//66
f 50//50 48//48 67//67
f 64//64 67//67 48//48
f 67//67 56//56 50//50
f 68//68 53//53 51//51
f 52//52 68//68 51//51
f 68//68 52//52 58//58
f 53//53 68//68 55//55
f 54//54 69//69 66//66
f 69//69 54//54 55//55
f 70//70 71//71 55//55
f 55//55 71//71 69//69
f 55//55 68//68 58//58
f 70//70 55//55 62//62
f 62//62 55//55 57//57
f 55//55 58//58 57//57
f 67//67 72//72 56//56
f 56//56 72//72 63//63
f 57//57 60//60 62//62
f 62//62 59//59 61//61
f 59//59 62//62 60//60
f 63//63 72//72 62//62
f 62//62 73//73 70//70
f 62//62 72//72 73//73
f 65//65 74//74 64//64
f 75//75 67//67 64//64
f 75//75 64//64 74//74
f 66//66 74//74 65//65
f 74//74 66//66 76//76
f 69//69 76//76 66//66
f 72//72 67//67 75//75
f 76//76 69//69 77//77
f 69//69 71//71 77//77
f 78//78 77//77 71//71
f 71//71 70//70 78//78
f 73//73 78//78 70//70
f 79//79 73//73 72//72
f 79//79 72//72 75//75
f 73//73 80//80 78//78
f 80//80 73//73 79//79
f 76//76 81//81 74//74
f 75//75 74//74 82//82
f 83//83 82//82 74//74
f 81//81 83//83 74//74
f 75//75 84//84 79//79
f 75//75 82//82 84//84
f 85//85 81//81 76//76
f 85//85 76//76 86//86
f 87//87 76//76 77//77
f 76//76 87//87 88//88
f 88//88 86//86 76//76
f 77//77 78//78 87//87
f 80//80 87//87 78//78
f 80//80 79//79 84//84
f 84//84 89//89 80//80
f 87//87 80//80 89//89
f 85//85 90//90 81//81
f 83//83 81//81 91//91
f 91//91 81//81 90//90
f 82//82 92//92 89//89
f 82//82 89//89 84//84
f 92//92 82//82 83//83
f 93//93 94//94 83//83
f 95//95 96//96 83//83
f 97//97 92//92 83//83
f 97//97 83//83 94//94
f 95//95 83//83 91//91
f 96//96 93//93 83//83
f 85//85 98//98 90//90
f 85//85 86//86 99//99
f 99//99 98//98 85//85
f 88//88 100//100 86//86
f 100//100 99//99 86//86
f 101//101 97//97 87//87
f 87//87 89//89 101//101
f 87//87 97//97 88//88
f 97//97 100//100 88//88
f 101//101 89//89 92//92
f 95//95 91//91 90//90
f 95//95 90//90 98//98
f 101//101 92//92 97//97
f 100//100 97//97 94//94
f 94//94 102//102 100//100
f 94//94 103//103 102//102
f 94//94 93//93 103//103
f 103//103 93//93 104//104
f 96//96 105//105 93//93
f 104//104 93//93 105//105
f 95//95 106//106 96//96
f 96//96 106//106 107//107
f 105//105 96//96 108//108
f 108//108 96//96 107//107
f 95//95 98//98 109//109
f 106//106 95//95 110//110
f 110//110 95//95 109//109
f 98//98 99//99 111//111
f 111//111 109//109 98//98
f 99//99 100//100 102//102
f 111//111 99//99 102//102
f 111//111 102//102 103//103
f 103//103 112//112 111//111
f 112//112 103//103 113//113
f 104//104 113//113 103//103
f 104//104 105//105 114//114
f 113//113 104//104 115//115
f 114//114 115//115 104//104
f 105//105 108//108 114//114
f 116//116 107//107 106//106
f 117//117 116//116 106//106
f 118//118 106//106 110//110
f 106//106 118//118 119//119
f 106//106 119//119 117//117
f 107//107 116//116 120//120
f 108//108 107//107 120//120
f 108//108 121//121 114//114
f 120//120 121//121 108//108
f 122//122 109//109 111//111
f 110//110 109//109 123//123
f 123//123 109//109 122//122
f 124//124 118//118 110//110
f 110//110 123//123 124//124
f 122//122 111//111 125//125
f 126//126 125//125 111//111
f 111//111 112//112 126//126
f 126//126 112//112 127//127
f 127//127 112//112 128//128
f 128//128 112//112 129//129
f 130//130 112//112 113//113
f 130//130 129//129 112//112
f 130//130 113//113 131//131
f 113//113 115//115 131//131
f 121//121 132//132 114//114
f 115//115 114//114 132//132
f 115//115 132//132 131//131
f 116//116 117//117 133//133
f 120//120 116//116 133//133
f 117//117 119//119 134//134
f 135//135 133//133 117//117
f 117//117 136//136 135//135
f 136//136 117//117 134//134
f 118//118 124//124 137//137
f 137//137 119//119 118//118
f 138//138 119//119 137//137
f 134//134 119//119 138//138
f 133//133 139//139 120//120
f 121//121 120//120 139//139
f 121//121 140//140 132//132
f 140//140 121//121 139//139
f 122//122 124//124 123//123
f 137//137 122//122 125//125
f 122//122 137//137 124//124
f 141//141 138//138 125//125
f 138//138 137//137 125//125
f 125//125 126//126 141//141
f 142//142 126//126 127//127
f 126//126 142//142 141//141
f 127//127 143//143 142//142
f 127//127 144//144 145//145
f 127//127 145//145 143//143
f 127//127 128//128 144//144
f 128//128 146//146 147//147
f 147//147 144//144 128//128
f 146//146 128//128 129//129
f 148//148 129//129 130//130
f 146//146 129//129 149//149
f 149//149 129//129 148//148
f 148//148 130//130 131//131
f 150//150 131//131 132//132
f 151//151 148//148 131//131
f 151//151 131//131 150//150
f 140//140 152//152 132//132
f 150//150 132//132 152//152
f 139//139 133//133 153//153
f 133//133 135//135 153//153
f 141//141 142//142 134//134
f 134//134 138//138 141//141
f 134//134 142//142 136//136
f 154//154 155//155 135//135
f 153//153 135//135 156//156
f 135//135 136//136 154//154
f 135//135 155//155 156//156
f 143//143 154//154 136//136
f 142//142 143//143 136//136
f 153//153 157//157 139//139
f 139//139 157//157 140//140
f 152//152 140//140 158//158
f 158//158 140//140 157//157
f 143//143 145//145 154//154
f 155//155 145//145 159//159
f 159//159 145//145 160//160
f 160//160 145//145 161//161
f 145//145 155//155 154//154
f 144//144 161//161 145//145
f 161//161 144//144 162//162
f 144//144 147//147 162//162
f 163//163 162//162 147//147
f 146//146 163//163 147//147
f 149//149 164//164 146//146
f 163//163 146//146 164//164
f 151//151 165//165 148//148
f 149//149 148//148 165//165
f 166//166 164//164 149//149
f 166//166 149//149 165//165
f 167//167 150//150 168//168
f 150//150 167//167 151//151
f 150//150 169//169 168//168
f 170//170 150//150 152//152
f 169//169 150//150 170//170
f 165//165 151//151 167//167
f 171//171 172//172 152//152
f 152//152 158//158 171//171
f 152//152 172//172 170//170
f 153//153 156//156 173//173
f 174//174 153//153 173//173
f 174//174 157//157 153//153
f 156//156 155//155 159//159
f 156//156 175//175 173//173
f 156//156 176//176 175//175
f 156//156 159//159 176//176
f 157//157 174//174 158//158
f 171//171 158//158 174//174
f 177//177 159//159 160//160
f 159//159 177//177 176//176
f 161//161 178//178 160//160
f 177//177 160//160 179//179
f 160//160 178//178 179//179
f 161//161 162//162 178//178
f 162//162 163//163 178//178
f 163//163 180//180 178//178
f 181//181 163//163 164//164
f 180//180 163//163 181//181
f 181//181 164//164 166//166
f 182//182 165//165 167//167
f 165//165 182//182 166//166
f 181//181 166//166 183//183
f 183//183 166//166 182//182
f 169//169 184//184 168//168
f 184//184 185//185 168//168
f 182//182 168//168 185//185
f 168//168 182//182 167//167
f 170//170 184//184 169//169
f 184//184 170//170 172//172
f 186//186 172//172 171//171
f 187//187 172//172 186//186
f 187//187 184//184 172//172
f 186//186 171//171 188//188
f 188//188 171//171 174//174
f 174//174 173//173 175//175
f 188//188 174//174 175//175
f 176//176 189//189 175//175
f 189//189 188//188 175//175
f 189//189 176//176 177//177
f 189//189 177//177 190//190
f 177//177 179//179 190//190
f 180//180 191//191 178//178
f 179//179 178//178 192//192
f 192//192 178//178 191//191
f 190//190 179//179 192//192
f 191//191 180//180 181//181
f 181//181 183//183 191//191
f 182//182 193//193 183//183
f 182//182 185//185 193//193
f 192//192 183//183 193//193
f 192//192 191//191 183//183
f 184//184 193//193 185//185
f 187//187 193//193 184//184
f 188//188 189//189 186//186
f 186//186 190//190 194//194
f 186//186 189//189 190//190
f 186//186 194//194 187//187
f 192//192 193//193 187//187
f 192//192 187//187 194//194
f 192//192 194//194 190//190
